# xmcd
#
# Track frame offsets:
#	150
#	12030
#	33414
#	52711
#	68305
#	86136
#	99694
#	121121
#	127158
#	142582
#
# Disc length: 2119 seconds
#
# Revision: 0
# Processed by: cddbd v1.5.2PL0 Copyright (c) Steve Scherf et al.
# Submitted via: EasyCDDAExtractor 11.9.9.666
#
DISCID=7208450a
DTITLE=Jerad Perck - Today, Tomorrow, And Yesterday
DYEAR=2006
DGENRE=Country
TTITLE0=Who's To Blame
TTITLE1=Ashes To Ashes
TTITLE2=Those Days
TTITLE3=Today Is The Tomorrow (we talked about yesterday)
TTITLE4=Another Angel Falls
TTITLE5=Boundary Line
TTITLE6=Have You Ever Seen An Angel Cry
TTITLE7=Pecan Ridge Ramble
TTITLE8=Where in Hell Are You Tonight
TTITLE9=Wishful Thinking
EXTD=
EXTT0=
EXTT1=
EXTT2=
EXTT3=
EXTT4=
EXTT5=
EXTT6=
EXTT7=
EXTT8=
EXTT9=
PLAYORDER=
